# Blender v2.79 (sub 0) OBJ File: ''
# www.blender.org
mtllib arrow2.mtl
o mesh302355881
v -0.155250 -0.025917 -0.003194
v -0.163186 -0.031844 -0.000124
v -0.102915 -0.027339 0.064920
v -0.094979 -0.021413 0.061851
v 0.147985 0.014526 -0.202793
v 0.087715 0.010021 -0.267837
v -0.094791 -0.016974 -0.069048
v -0.034520 -0.012470 -0.004003
v 0.092276 -0.007417 0.263937
v 0.152735 0.001526 0.198083
v -0.102727 -0.022901 -0.065978
v -0.042456 -0.018396 -0.000934
v 0.144799 -0.004401 0.201153
v 0.084340 -0.013344 0.267007
v 0.079779 0.004095 -0.264767
v 0.140050 0.008599 -0.199723
vt -0.085317 -0.191465
vt -0.092476 -0.187894
vt -0.088905 -0.180735
vt -0.081746 -0.184306
vt 0.219308 -0.004601
vt 0.226586 -0.007923
vt 0.216557 -0.029891
vt 0.209280 -0.026569
vt 0.183347 -0.023525
vt 0.186669 -0.016248
vt 0.205958 -0.033847
vt -0.022821 0.059146
vt -0.015021 0.060922
vt -0.013244 0.053122
vt -0.021045 0.051345
vt 0.213235 -0.037169
vt -0.213235 -0.037169
vt -0.216557 -0.029891
vt -0.209280 -0.026569
vt -0.205958 -0.033847
vt 0.070651 -0.162065
vt 0.077809 -0.158494
vt 0.088904 -0.180736
vt 0.081745 -0.184307
vt -0.186669 -0.016248
vt -0.183347 -0.023525
vt -0.077810 -0.158494
vt -0.070651 -0.162065
vt 0.013244 0.053122
vt 0.015021 0.060922
vt 0.022821 0.059146
vt 0.021045 0.051345
vt -0.028183 0.082692
vt -0.020382 0.084469
vt -0.226586 -0.007923
vt -0.219308 -0.004601
vt 0.020382 0.084468
vt 0.028183 0.082692
vt 0.022821 0.059146
vt 0.015021 0.060922
vt 0.088905 -0.180735
vt 0.092476 -0.187894
vt 0.085317 -0.191465
vt 0.081746 -0.184306
vn -0.4597 0.8073 0.3701
vn -0.1104 0.9933 0.0335
vn -0.6337 0.5886 -0.5019
vn 0.1104 -0.9933 -0.0335
vn 0.4597 -0.8073 -0.3701
vn 0.6337 -0.5886 0.5019
usemtl mat2
s 1
f 1/1/1 2/2/1 3/3/1 4/4/1
f 5/5/2 6/6/2 7/7/2 8/8/2
f 9/9/2 10/10/2 8/8/2 4/11/2
f 7/12/3 11/13/3 2/14/3 1/15/3
f 8/8/2 7/7/2 1/16/2 4/11/2
f 2/17/4 11/18/4 12/19/4 3/20/4
f 10/21/5 13/22/5 12/23/5 8/24/5
f 13/25/4 14/26/4 3/20/4 12/19/4
f 14/27/1 9/28/1 4/4/1 3/3/1
f 14/29/6 13/30/6 10/31/6 9/32/6
f 6/33/3 15/34/3 11/13/3 7/12/3
f 15/35/4 16/36/4 12/19/4 11/18/4
f 16/37/6 5/38/6 8/39/6 12/40/6
f 16/41/5 15/42/5 6/43/5 5/44/5
